
<svg xmlns="http://www.w3.org/2000/svg" viewBox="0 0 64 64" style="enable-background:new 0 0 64 64" xml:space="preserve">
	<path fill="#FFFFFF" d="M44.06 42.062h-3.577a1 1 0 0 0-1 1V53.76a1 1 0 0 0 2 0v-3.956h2.576c2.136 0 3.875-1.736 3.875-3.87s-1.739-3.872-3.875-3.872zm0 5.742h-2.577v-3.742h2.576c1.034 0 1.875.84 1.875 1.871s-.841 1.871-1.875 1.871zM35.425 42.062a1 1 0 0 0-1 1v4.349h-4.85v-4.349a1 1 0 0 0-2 0V53.76a1 1 0 0 0 2 0v-4.35h4.85v4.35a1 1 0 0 0 2 0V43.062a1 1 0 0 0-1-1zM20.645 42.062H17.07a1 1 0 0 0-1 1V53.76a1 1 0 0 0 2 0v-3.956h2.575c2.135 0 3.872-1.736 3.872-3.87s-1.737-3.872-3.872-3.872zm0 5.742H18.07v-3.742h2.575c1.032 0 1.872.84 1.872 1.871s-.84 1.871-1.872 1.871z"/>
	<path fill="#FFFFFF" d="M51.413 1H20.105c-.24 0-.53.119-.702.288L8.987 11.544c-.174.17-.298.466-.298.712v46.842A3.905 3.905 0 0 0 12.587 63h38.826c2.15 0 3.899-1.75 3.899-3.902v-54.2A3.903 3.903 0 0 0 51.413 1zM19.105 4.388v4.966a1.904 1.904 0 0 1-1.902 1.902H12.13l6.975-6.868zm34.207 54.71A1.902 1.902 0 0 1 51.413 61H12.587a1.902 1.902 0 0 1-1.898-1.902V13.256h6.514a3.906 3.906 0 0 0 3.902-3.902V3h30.308a1.9 1.9 0 0 1 1.899 1.898v54.2z"/>
	<path fill="#FFFFFF" d="M48.395 23.531H15.608a1 1 0 0 0 0 2h32.787a1 1 0 0 0 0-2zM48.104 28.866H15.608a1 1 0 0 0 0 2h32.496a1 1 0 0 0 0-2zM33 35.205a1 1 0 0 0-1-1H15.608a1 1 0 0 0 0 2H32a1 1 0 0 0 1-1zM48.395 18.193H15.608a1 1 0 0 0 0 2h32.787a1 1 0 0 0 0-2zM48.395 12.854h-20.84a1 1 0 0 0 0 2h20.84a1 1 0 0 0 0-2z"/>
</svg>