<svg xmlns="http://www.w3.org/2000/svg" viewBox="0 0 64 64" style="enable-background:new 0 0 64 64" xml:space="preserve">
	<path fill="white" d="M58.492 5.873H5.508A4.513 4.513 0 0 0 1 10.38v43.24a4.513 4.513 0 0 0 4.508 4.507h52.984A4.513 4.513 0 0 0 63 53.619V10.38a4.513 4.513 0 0 0-4.508-4.507zm-52.984 2h52.984A2.51 2.51 0 0 1 61 10.38v6.889H3V10.38a2.51 2.51 0 0 1 2.508-2.507zm52.984 48.254H5.508A2.51 2.51 0 0 1 3 53.619V19.27h58v34.35a2.51 2.51 0 0 1-2.508 2.508z"/>
	<path fill="white" d="M46.724 15.785a3.22 3.22 0 0 0 3.217-3.214c0-1.775-1.443-3.218-3.217-3.218s-3.218 1.443-3.218 3.218a3.22 3.22 0 0 0 3.218 3.214zm0-4.432a1.217 1.217 0 1 1 .002 2.43 1.217 1.217 0 0 1-.002-2.43zM37.929 15.785a3.22 3.22 0 0 0 3.217-3.214c0-1.775-1.443-3.218-3.217-3.218s-3.218 1.443-3.218 3.218a3.22 3.22 0 0 0 3.218 3.214zm0-4.432a1.217 1.217 0 1 1 .002 2.43 1.217 1.217 0 0 1-.002-2.43zM55.519 15.785a3.22 3.22 0 0 0 3.217-3.214c0-1.775-1.443-3.218-3.217-3.218S52.3 10.796 52.3 12.571a3.22 3.22 0 0 0 3.218 3.214zm0-4.432a1.217 1.217 0 1 1 .002 2.43 1.217 1.217 0 0 1-.002-2.43zM57.411 36.025H7.565a1 1 0 1 0 0 2H57.41a1 1 0 1 0 0-2zM57.411 42.309H7.565a1 1 0 1 0 0 2H57.41a1 1 0 1 0 0-2zM57.411 48.588H7.565a1 1 0 1 0 0 2H57.41a1 1 0 1 0 0-2zM7.592 31.743a1 1 0 0 0 1-1v-2.56h2.712v2.56a1 1 0 1 0 2 0v-7.118a1 1 0 1 0-2 0v2.559H8.592v-2.56a1 1 0 1 0-2 0v7.119a1 1 0 0 0 1 1zM17.362 24.625h1.649v6.118a1 1 0 1 0 2 0v-6.118h1.652a1 1 0 1 0 0-2h-5.3a1 1 0 1 0 0 2zM27.72 31.743a1 1 0 0 0 1-1v-3.748l1.554 2.387c.37.568 1.307.567 1.676 0l1.553-2.386v3.747a1 1 0 1 0 2 0v-7.118a.999.999 0 0 0-1.838-.546l-2.553 3.924-2.553-3.924a1 1 0 0 0-1.838.545v7.119a1 1 0 0 0 1 1zM39.562 31.743h4.17a1 1 0 1 0 0-2h-3.17v-6.118a1 1 0 1 0-2 0v7.118a1 1 0 0 0 1 1zM57.411 29.743h-7.197a1 1 0 1 0 0 2h7.197a1 1 0 1 0 0-2zM57.411 23.463h-7.197a1 1 0 1 0 0 2h7.197a1 1 0 1 0 0-2z"/>
</svg>