<svg xmlns="http://www.w3.org/2000/svg" viewBox="0 0 64 64" style="enable-background:new 0 0 64 64" xml:space="preserve">
	<path fill="white" d="M58.492 5.872H5.508A4.513 4.513 0 0 0 1 10.38v43.24a4.513 4.513 0 0 0 4.508 4.508h52.984A4.513 4.513 0 0 0 63 53.62V10.38a4.513 4.513 0 0 0-4.508-4.508zm-52.984 2h52.984A2.51 2.51 0 0 1 61 10.38v6.889H3v-6.89a2.51 2.51 0 0 1 2.508-2.507zm52.984 48.256H5.508A2.51 2.51 0 0 1 3 53.62V19.27h58V53.62a2.51 2.51 0 0 1-2.508 2.508z"/>
	<path fill="white" d="M46.724 15.784a3.22 3.22 0 0 0 3.217-3.214c0-1.774-1.443-3.218-3.217-3.218s-3.218 1.444-3.218 3.218a3.22 3.22 0 0 0 3.218 3.214zm0-4.432c.671 0 1.217.546 1.217 1.218a1.218 1.218 0 0 1-2.435 0c0-.672.546-1.218 1.218-1.218zM37.929 15.784a3.22 3.22 0 0 0 3.217-3.214 3.221 3.221 0 0 0-3.217-3.218 3.221 3.221 0 0 0-3.218 3.218 3.22 3.22 0 0 0 3.218 3.214zm0-4.432c.671 0 1.217.546 1.217 1.218a1.218 1.218 0 0 1-2.435 0c0-.672.546-1.218 1.218-1.218zM55.519 15.784a3.22 3.22 0 0 0 3.217-3.214 3.221 3.221 0 0 0-3.217-3.218A3.221 3.221 0 0 0 52.3 12.57a3.22 3.22 0 0 0 3.218 3.214zm0-4.432A1.217 1.217 0 1 1 54.3 12.57c0-.672.546-1.218 1.218-1.218zM6.964 23.416a.999.999 0 0 0-.2 1.4l.011.013c.195.26.49.397.791.397a1.006 1.006 0 0 0 .798-1.61 1 1 0 0 0-1.4-.2zM7.275 31.492a1.006 1.006 0 0 0 .798-1.61 1 1 0 1 0-1.6 1.2l.01.014c.196.26.492.396.792.396zM6.484 37.386c.195.26.49.396.79.396a1.006 1.006 0 0 0 .798-1.61 1 1 0 0 0-1.598 1.2l.01.014zM6.484 43.922c.195.26.49.396.79.396a1.006 1.006 0 0 0 .798-1.61 1 1 0 1 0-1.598 1.2l.01.014zM6.77 48.477a1 1 0 0 0-.36 1.369l.01.017c.185.317.514.49.853.49.173 0 .349-.044.51-.138.476-.278.633-.9.354-1.377a1.003 1.003 0 0 0-1.368-.36zM44.062 44.34a1 1 0 0 0-1.407-.149l-3.042 2.46a.999.999 0 0 0 0 1.556l3.043 2.457a.996.996 0 0 0 1.406-.15 1 1 0 0 0-.15-1.407l-2.08-1.678 2.081-1.683a1 1 0 0 0 .149-1.406zM48.301 44.026a1 1 0 0 0-1.277.607l-1.752 4.917a1 1 0 0 0 1.884.672l1.752-4.917a1 1 0 0 0-.607-1.279zM51.51 44.191a1 1 0 1 0-1.258 1.555l2.08 1.683-2.079 1.678a1 1 0 0 0 1.257 1.557l3.042-2.457a1.001 1.001 0 0 0 0-1.555l-3.042-2.46zM13.769 37.78h13.756a1 1 0 1 0 0-2H13.77a1 1 0 1 0 0 2zM33.713 42.063H13.769a1 1 0 1 0 0 2h19.944a1 1 0 1 0 0-2zM25.164 48.342H13.77a1 1 0 1 0 0 2h11.395a1 1 0 1 0 0-2zM13.769 31.496h13.756a1 1 0 1 0 0-2H13.77a1 1 0 1 0 0 2zM13.769 25.216h13.756a1 1 0 1 0 0-2H13.77a1 1 0 1 0 0 2zM47.966 23.216H34.209a1 1 0 1 0 0 2h13.757a1 1 0 1 0 0-2zM47.966 35.78H34.209a1 1 0 1 0 0 2h13.757a1 1 0 1 0 0-2z"/>
</svg>